# xmcd
#
# Track frame offsets: 
#        150
#        15279
#        31508
#        40975
#        53796
#        75006
#        92144
#        104144
#        110481
#        120608
#        129591
#        135600
#        147150
#        164283
#        178747
#        195012
#        211053
#        222609
#
# Disc length: 3197 seconds
#
# Revision: 4
# Processed by: cddbd v1.5.2PL0 Copyright (c) Steve Scherf et al.
# Submitted via: ExactAudioCopy v1.1
#
DISCID=eb0c7b12
DTITLE=Johnny Cash - The Great Lost Performance
DYEAR=2007
DGENRE=Country
TTITLE0=Ring Of Fire
TTITLE1=Lifes Railway To Heaven
TTITLE2=A Wonderful Time Up There
TTITLE3=Folsom Prison Blues
TTITLE4=Sunday Morning Coming Down
TTITLE5=What Is Man (with Lucy Clark)
TTITLE6=Forty Shades Of Green
TTITLE7=Come Along And Ride This Train
TTITLE8=Five Feet High And Rising
TTITLE9=Pickin Time
TTITLE10=A Beautiful Life
TTITLE11=Hey Porter
TTITLE12=Ragged Old Flag
TTITLE13=Tennessee Flat Top Box
TTITLE14=Ghost Riders In The Sky
TTITLE15=Jackson (with June Carter Cash)
TTITLE16=The Wreck Of The Old 97 (with June Carter Cash)
TTITLE17=I Walk The Line
EXTD=
EXTT0=
EXTT1=
EXTT2=
EXTT3=
EXTT4=
EXTT5=
EXTT6=
EXTT7=
EXTT8=
EXTT9=
EXTT10=
EXTT11=
EXTT12=
EXTT13=
EXTT14=
EXTT15=
EXTT16=
EXTT17=
PLAYORDER=
